<svg width="130" height="23" viewBox="0 0 130 23" fill="none" xmlns="http://www.w3.org/2000/svg">
<path fill-rule="evenodd" clip-rule="evenodd" d="M69.4012 22.6653C76.1912 22.6653 81.1139 17.8432 81.1139 11.0189C81.1139 4.64582 75.4839 0.162109 69.4012 0.162109C63.3186 0.162109 57.6886 4.64582 57.6886 11.0189C57.6886 17.8432 62.6113 22.6653 69.4012 22.6653ZM69.3729 17.3356C66.0911 17.3356 63.4034 14.6848 63.4034 11.0471C63.4034 8.14255 66.1194 5.46361 69.3729 5.46361C72.6548 5.46361 75.3424 8.14255 75.3424 11.0471C75.3424 14.6848 72.6548 17.3356 69.3729 17.3356ZM8.88353 4.869C10.2415 4.869 11.5146 5.43299 12.5331 6.27897L14.7116 2.04906C12.8443 0.977482 10.2132 0.300692 8.09137 0.300692C3.84764 0.300692 0.792162 3.09244 0.792162 7.37875C0.792162 11.4677 3.05548 12.3419 6.50705 13.357C6.57519 13.3764 6.64649 13.3964 6.72038 13.4171L6.72038 13.4171C7.93484 13.7571 9.84544 14.292 9.84544 15.754C9.84544 17.2204 8.48745 17.8689 7.18604 17.8689C5.29051 17.8689 3.6779 16.9102 2.29161 15.6976L0 20.0685C2.15015 21.5631 4.78126 22.4654 7.44067 22.4654C9.56253 22.4654 11.7693 21.9015 13.4385 20.4915C15.1077 19.0815 15.6169 16.9102 15.6169 14.8234C15.6169 11.4113 13.3253 9.9449 10.383 9.07072L8.96841 8.64773C8.03479 8.36573 6.53534 7.88634 6.53534 6.64556C6.53534 5.46119 7.86504 4.869 8.88353 4.869ZM25.9166 9.01533V5.4904L32.4803 5.51859V0.865682H20.4281V21.9589H32.4803V17.306H25.9166V13.6682H32.1125V9.01533H25.9166ZM36.5543 0.865682H44.3627C50.2473 0.865682 55.1135 5.4904 55.1135 11.4123C55.1135 17.3342 50.2191 21.9589 44.3627 21.9589H36.5543V0.865682ZM42.0711 17.306H43.3159C46.5977 17.306 49.3986 15.5012 49.3986 11.4123C49.3986 7.63356 46.909 5.51859 43.3725 5.51859H42.0711V17.306ZM84.0231 0.865682H89.5399L99.6117 13.781H99.6683V0.865682H105.185V21.9589H99.6683L89.5965 9.01533H89.5399V21.9589H84.0231V0.865682ZM113.704 21.9589L115.175 18.293H122.757L124.144 21.9589H130L122.022 0.865682H116.024L107.876 21.9589H113.704ZM118.966 7.37976H119.023L121.286 14.0912H116.703L118.966 7.37976Z" fill="#81B3D2"/>
</svg>
