<svg width="48" height="48" viewBox="0 0 48 48" fill="none" xmlns="http://www.w3.org/2000/svg">
  <path d="M32.1451 28.412C29.035 33.5527 25.2805 37.6173 21.7651 40.0476C18.1673 42.5349 15.1788 43.09 13.3125 42.029C11.4462 40.968 10.4873 38.1685 10.9703 33.9104C11.4424 29.7499 13.269 24.5893 16.3791 19.4486C19.4892 14.3078 23.2438 10.2432 26.7591 7.81297C30.3569 5.3257 33.3455 4.77052 35.2117 5.83155C37.078 6.89259 38.037 9.69204 37.5539 13.9501C37.0819 18.1106 35.2552 23.2713 32.1451 28.412Z" stroke="#5FA1F7" stroke-width="2"/>
  <path d="M31.9063 19.5364C35.0728 24.6448 36.9562 29.7864 37.474 33.9419C38.0039 38.195 37.0756 41.004 35.2215 42.084C33.3674 43.164 30.3731 42.64 26.7479 40.1899C23.2059 37.796 19.4068 33.7704 16.2403 28.662C13.0738 23.5536 11.1904 18.412 10.6727 14.2565C10.1427 10.0034 11.071 7.19442 12.9251 6.1144C14.7792 5.03439 17.7735 5.55839 21.3987 8.00851C24.9407 10.4024 28.7398 14.428 31.9063 19.5364Z" stroke="#5FA1F7" stroke-width="2"/>
  <path d="M24.323 15.2343C30.4784 15.2979 35.9915 16.4396 39.9215 18.1938C41.888 19.0717 43.4129 20.0828 44.429 21.1477C45.4406 22.208 45.9032 23.2694 45.8919 24.2936C45.8806 25.3179 45.3949 26.3694 44.3602 27.4086C43.3209 28.4522 41.7741 29.4316 39.7887 30.2686C35.8211 31.9413 30.2841 32.9688 24.1287 32.9052C17.9732 32.8416 12.4601 31.6999 8.53019 29.9456C6.56364 29.0677 5.03873 28.0566 4.02266 26.9917C3.01104 25.9315 2.5485 24.8701 2.55976 23.8458C2.57102 22.8216 3.0568 21.77 4.09151 20.7309C5.13076 19.6872 6.67756 18.7078 8.66297 17.8708C12.6306 16.1982 18.1675 15.1706 24.323 15.2343Z" stroke="#5FA1F7" stroke-width="2"/>
  <ellipse cx="24.1514" cy="24.2181" rx="4.05959" ry="3.93535" fill="#5FA1F7"/>
</svg>  