<svg width="259" height="168" viewBox="0 0 259 168" fill="none" xmlns="http://www.w3.org/2000/svg">
<path d="M34.4009 166.68C27.9609 166.68 24.7409 164.93 24.7409 161.43L25.1609 135.6L25.5809 109.77C25.5809 100.39 25.3709 86.18 24.9509 67.14C24.5309 48.24 24.3209 34.03 24.3209 24.51V23.25C24.3209 19.61 24.6709 16.25 25.3709 13.17C26.2109 9.38999 28.4509 7.49999 32.0909 7.49999C41.8909 7.49999 49.6609 10.65 55.4009 16.95C61.1409 23.25 64.0109 31.58 64.0109 41.94C64.0109 48.24 62.3309 54.82 58.9709 61.68C55.6109 68.54 51.6209 73.65 47.0009 77.01C55.1209 82.47 61.0709 89.54 64.8509 98.22C68.7709 106.76 70.7309 116.21 70.7309 126.57C70.7309 131.47 69.0509 137.56 65.6909 144.84C61.6309 153.52 56.1009 159.75 49.1009 163.53C44.9009 165.63 40.2809 166.68 35.2409 166.68H34.4009ZM36.5009 73.86C40.1409 73.02 43.2209 70.01 45.7409 64.83C47.8409 60.91 49.8009 56.15 51.6209 50.55C52.0409 49.01 52.7409 47.05 53.7209 44.67V37.32C53.7209 33.12 52.1809 29.06 49.1009 25.14C46.0209 21.22 42.5209 19.26 38.6009 19.26C36.6409 19.26 35.6609 21.43 35.6609 25.77C35.6609 35.01 35.8009 43.27 36.0809 50.55L36.5009 73.86ZM37.3409 155.76C44.2009 154.78 49.6609 151.63 53.7209 146.31C57.7809 140.99 59.8109 134.62 59.8109 127.2C59.8109 120.76 59.2509 114.88 58.1309 109.56C57.1509 104.1 55.8209 99.97 54.1409 97.17C52.6009 94.51 51.0609 92.27 49.5209 90.45C47.9809 88.63 46.6509 87.44 45.5309 86.88L43.8509 86.25H36.2909C36.9909 102.35 37.3409 125.52 37.3409 155.76ZM116.816 167.1C114.156 167.1 111.566 165.21 109.046 161.43V160.8C108.626 153.38 107.366 145.12 105.266 136.02C103.166 126.92 100.086 115.93 96.026 103.05C92.946 93.39 90.356 84.71 88.256 77.01V159.75C88.256 161.99 87.836 163.67 86.996 164.79C86.296 165.77 84.826 166.26 82.586 166.26C80.906 166.26 79.576 165.77 78.596 164.79C77.616 163.67 77.126 162.27 77.126 160.59V158.91L77.546 97.17C77.826 78.97 77.966 58.46 77.966 35.64V9.81C77.966 8.12999 78.316 7.00999 79.016 6.44999C79.716 5.74999 81.186 5.39999 83.426 5.39999C86.926 5.39999 90.146 6.09999 93.086 7.49999C96.026 8.75999 98.546 10.58 100.646 12.96C104.986 17.86 107.786 23.74 109.046 30.6C109.606 33.4 109.886 36.62 109.886 40.26C109.886 42.36 109.676 44.67 109.256 47.19C108.976 49.71 108.766 51.32 108.626 52.02C108.346 53.42 107.716 55.52 106.736 58.32C105.756 61.12 105.126 62.94 104.846 63.78L102.326 69.66L100.226 75.12C100.366 80.16 101.206 86.53 102.746 94.23C104.426 101.93 106.246 109.07 108.206 115.65C109.606 120.27 112.126 127.97 115.766 138.75L121.856 157.23V157.65C121.856 160.03 121.646 162.06 121.226 163.74C120.806 165.98 119.336 167.1 116.816 167.1ZM87.836 67.56C89.796 65.6 92.176 62.87 94.976 59.37L98.126 41.31C98.266 40.61 98.336 39.63 98.336 38.37C98.336 34.31 97.566 29.62 96.026 24.3C95.186 21.78 94.066 19.68 92.666 18C91.406 16.18 90.076 15.2 88.676 15.06L88.256 36.06C87.836 45.44 87.626 52.72 87.626 57.9C87.626 62.8 87.696 66.02 87.836 67.56Z" fill="black"/>
<path d="M149.927 120C148.327 120 147.127 119.7 146.327 119.1C145.627 118.5 145.277 117.5 145.277 116.1V96.45C143.977 95.55 141.527 94.75 137.927 94.05C134.327 93.35 130.927 92.9 127.727 92.7C126.627 94.8 125.827 97.35 125.327 100.35L124.727 103.35C124.627 104.05 124.327 105.6 123.827 108C123.327 110.4 122.777 112.5 122.177 114.3C121.577 116 120.977 117.35 120.377 118.35C116.577 118.35 114.377 117.35 113.777 115.35C114.877 113.75 116.127 109.05 117.527 101.25L122.477 73.8C124.677 60.8 126.677 49.7 128.477 40.5C130.377 31.3 132.377 23.6 134.477 17.4C136.777 10.5 138.977 7.05 141.077 7.05C143.177 7.05 144.777 7.44999 145.877 8.24999C145.877 12.25 146.827 21.9 148.727 37.2C150.727 52.2 151.727 62.45 151.727 67.95C151.727 73.25 152.277 80.85 153.377 90.75C154.377 100.85 154.877 108.9 154.877 114.9C154.877 118.3 153.227 120 149.927 120ZM142.127 87.75C142.927 87.75 143.927 87.6 145.127 87.3C144.827 82.9 144.327 77.45 143.627 70.95C141.327 48.35 140.177 34.5 140.177 29.4V28.2C139.177 29.2 137.777 33.75 135.977 41.85C134.277 49.85 132.677 58.45 131.177 67.65C129.677 76.85 128.877 82.95 128.777 85.95C132.977 87.15 137.427 87.75 142.127 87.75ZM181.668 123.9C176.168 123.9 171.618 122.25 168.018 118.95C165.118 116.55 162.468 112.45 160.068 106.65C158.568 102.85 157.368 97.5 156.468 90.6C155.768 85 155.418 79.7 155.418 74.7C155.318 73.4 155.268 71.15 155.268 67.95V62.85V56.85C155.268 52.55 155.418 47.4 155.718 41.4C156.118 36.3 156.918 31.1 158.118 25.8C159.418 20.6 161.318 16.2 163.818 12.6C166.318 8.8 169.668 6.1 173.868 4.49999C176.368 3.8 178.718 3.45 180.918 3.45C185.118 3.45 187.218 4.85 187.218 7.65C187.218 8.75 186.818 9.65 186.018 10.35C185.318 10.95 184.368 11.25 183.168 11.25C182.768 11.25 182.068 11.1 181.068 10.8L178.968 10.5C177.068 10.5 175.368 11.1 173.868 12.3C172.368 13.4 171.118 15.05 170.118 17.25C167.818 22.05 166.268 27.3 165.468 33C164.368 40 163.768 46.1 163.668 51.3C163.468 55.8 163.368 60.55 163.368 65.55V69.6C163.268 71 163.218 72.75 163.218 74.85C163.218 79.95 163.468 84.95 163.968 89.85C164.368 95.65 165.468 100.65 167.268 104.85C168.868 109.55 171.468 112.85 175.068 114.75C176.768 115.75 178.868 116.25 181.368 116.25C185.768 116.25 189.468 114.15 192.468 109.95C192.368 106.45 192.118 103.05 191.718 99.75C191.318 96.35 190.718 94.05 189.918 92.85C189.818 92.85 189.568 92.9 189.168 93C188.868 93 188.368 93.05 187.668 93.15L184.068 93.45C180.668 93.45 178.968 92 178.968 89.1C178.968 88.2 179.468 87.4 180.468 86.7C181.468 86 182.818 85.5 184.518 85.2C187.318 84.5 189.818 84.15 192.018 84.15C194.018 84.15 195.568 84.9 196.668 86.4C197.768 87.9 198.318 89.8 198.318 92.1C198.318 95.4 198.818 99.9 199.818 105.6C200.818 111.2 201.318 115.65 201.318 118.95C201.318 120.05 200.968 121 200.268 121.8C199.568 122.6 198.718 123 197.718 123C195.218 123 193.518 121.95 192.618 119.85V119.7L189.318 121.35C186.318 123.05 183.768 123.9 181.668 123.9ZM240.032 120C238.432 120 237.232 119.7 236.432 119.1C235.732 118.5 235.382 117.5 235.382 116.1V96.45C234.082 95.55 231.632 94.75 228.032 94.05C224.432 93.35 221.032 92.9 217.832 92.7C216.732 94.8 215.932 97.35 215.432 100.35L214.832 103.35C214.732 104.05 214.432 105.6 213.932 108C213.432 110.4 212.882 112.5 212.282 114.3C211.682 116 211.082 117.35 210.482 118.35C206.682 118.35 204.482 117.35 203.882 115.35C204.982 113.75 206.232 109.05 207.632 101.25L212.582 73.8C214.782 60.8 216.782 49.7 218.582 40.5C220.482 31.3 222.482 23.6 224.582 17.4C226.882 10.5 229.082 7.05 231.182 7.05C233.282 7.05 234.882 7.44999 235.982 8.24999C235.982 12.25 236.932 21.9 238.832 37.2C240.832 52.2 241.832 62.45 241.832 67.95C241.832 73.25 242.382 80.85 243.482 90.75C244.482 100.85 244.982 108.9 244.982 114.9C244.982 118.3 243.332 120 240.032 120ZM232.232 87.75C233.032 87.75 234.032 87.6 235.232 87.3C234.932 82.9 234.432 77.45 233.732 70.95C231.432 48.35 230.282 34.5 230.282 29.4V28.2C229.282 29.2 227.882 33.75 226.082 41.85C224.382 49.85 222.782 58.45 221.282 67.65C219.782 76.85 218.982 82.95 218.882 85.95C223.082 87.15 227.532 87.75 232.232 87.75Z" fill="#EFC91C"/>
<path d="M134.238 165.3C133.604 165.3 133.054 165.217 132.588 165.05C132.021 164.883 131.738 164.417 131.738 163.65V134.6C131.738 134.033 131.638 133.183 131.438 132.05C131.204 131.017 131.088 130.167 131.088 129.5V129.35C131.654 128.417 132.071 127.817 132.338 127.55C132.804 127.55 133.421 127.483 134.188 127.35C134.888 127.217 135.504 127.15 136.038 127.15C136.571 127.15 137.088 127.317 137.588 127.65C138.088 127.95 138.338 128.317 138.338 128.75C138.338 129.75 137.571 130.25 136.038 130.25H135.338C135.138 130.217 134.904 130.2 134.638 130.2C134.338 130.2 134.154 130.217 134.088 130.25C134.088 131.383 134.154 132.75 134.288 134.35L134.388 135.75L134.488 138.5C134.488 139.133 134.438 140.1 134.338 141.4L134.238 144.2L134.938 144.05C135.604 143.85 136.154 143.75 136.588 143.75C136.954 143.75 137.288 143.9 137.588 144.2C137.888 144.467 138.038 144.783 138.038 145.15C138.038 145.55 137.904 145.917 137.638 146.25C137.404 146.55 137.104 146.7 136.738 146.7L136.138 146.65H135.488C134.988 146.65 134.638 146.767 134.438 147V162.45L137.238 162.3C139.138 162.3 140.088 162.733 140.088 163.6V163.8C139.888 164.2 139.521 164.533 138.988 164.8C138.454 165.033 137.938 165.183 137.438 165.25L135.788 165.3H134.238ZM160.304 165.7C159.07 165.7 158.454 164.433 158.454 161.9C158.454 160.3 157.754 154.583 156.354 144.75C154.987 134.883 154.12 129.5 153.754 128.6C154.187 127.8 154.77 127.4 155.504 127.4C156.27 127.4 156.987 129.133 157.654 132.6C158.287 136.267 158.82 140.467 159.254 145.2L159.604 149.25C159.804 151.517 159.92 152.667 159.954 152.7L160.454 148.5L160.754 145.9C161.187 142.1 161.47 139.417 161.604 137.85C161.77 135.783 161.854 134.367 161.854 133.6V132.65C161.854 132.283 161.987 131.933 162.254 131.6C162.52 131.267 162.82 131.1 163.154 131.1C164.354 131.1 164.954 131.6 164.954 132.6V133.35C164.954 135.25 165.137 137.3 165.504 139.5C165.904 141.667 166.47 144.267 167.204 147.3C167.67 149.067 168.137 151.217 168.604 153.75C168.704 152.65 169.02 149.983 169.554 145.75C170.087 141.883 170.47 138.6 170.704 135.9C170.97 133.167 171.104 130.617 171.104 128.25C171.104 127.483 171.22 126.95 171.454 126.65C171.72 126.317 172.204 126.15 172.904 126.15C173.304 126.15 173.654 126.283 173.954 126.55C174.287 126.783 174.454 127.1 174.454 127.5C174.454 127.867 174.287 128.25 173.954 128.65C173.954 131.05 173.77 133.867 173.404 137.1C173.037 140.3 172.587 143.35 172.054 146.25C171.52 149.083 171.07 152.133 170.704 155.4C170.337 158.633 170.154 161.483 170.154 163.95C170.154 164.483 170.02 164.9 169.754 165.2C169.52 165.533 169.154 165.7 168.654 165.7C168.287 165.7 167.854 165.017 167.354 163.65C166.72 161.75 165.937 157.967 165.004 152.3L164.104 146.45L163.654 143.2C163.22 146.233 162.887 148.683 162.654 150.55C162.454 152.383 162.254 154.567 162.054 157.1C161.82 159.533 161.704 161.933 161.704 164.3C161.704 164.633 161.554 164.95 161.254 165.25C160.987 165.55 160.67 165.7 160.304 165.7ZM192.861 165.3C192.227 165.3 191.677 165.217 191.211 165.05C190.644 164.883 190.361 164.417 190.361 163.65V134.6C190.361 134.033 190.261 133.183 190.061 132.05C189.827 131.017 189.711 130.167 189.711 129.5V129.35C190.277 128.417 190.694 127.817 190.961 127.55C191.427 127.55 192.044 127.483 192.811 127.35C193.511 127.217 194.127 127.15 194.661 127.15C195.194 127.15 195.711 127.317 196.211 127.65C196.711 127.95 196.961 128.317 196.961 128.75C196.961 129.75 196.194 130.25 194.661 130.25H193.961C193.761 130.217 193.527 130.2 193.261 130.2C192.961 130.2 192.777 130.217 192.711 130.25C192.711 131.383 192.777 132.75 192.911 134.35L193.011 135.75L193.111 138.5C193.111 139.133 193.061 140.1 192.961 141.4L192.861 144.2L193.561 144.05C194.227 143.85 194.777 143.75 195.211 143.75C195.577 143.75 195.911 143.9 196.211 144.2C196.511 144.467 196.661 144.783 196.661 145.15C196.661 145.55 196.527 145.917 196.261 146.25C196.027 146.55 195.727 146.7 195.361 146.7L194.761 146.65H194.111C193.611 146.65 193.261 146.767 193.061 147V162.45L195.861 162.3C197.761 162.3 198.711 162.733 198.711 163.6V163.8C198.511 164.2 198.144 164.533 197.611 164.8C197.077 165.033 196.561 165.183 196.061 165.25L194.411 165.3H192.861ZM223.177 165.5C222.543 165.5 221.927 165.05 221.327 164.15V164C221.227 162.233 220.927 160.267 220.427 158.1C219.927 155.933 219.193 153.317 218.227 150.25C217.493 147.95 216.877 145.883 216.377 144.05V163.75C216.377 164.283 216.277 164.683 216.077 164.95C215.91 165.183 215.56 165.3 215.027 165.3C214.627 165.3 214.31 165.183 214.077 164.95C213.843 164.683 213.727 164.35 213.727 163.95V163.55L213.827 148.85C213.893 144.517 213.927 139.633 213.927 134.2V128.05C213.927 127.65 214.01 127.383 214.177 127.25C214.343 127.083 214.693 127 215.227 127C216.06 127 216.827 127.167 217.527 127.5C218.227 127.8 218.827 128.233 219.327 128.8C220.36 129.967 221.027 131.367 221.327 133C221.46 133.667 221.527 134.433 221.527 135.3C221.527 135.8 221.477 136.35 221.377 136.95C221.31 137.55 221.26 137.933 221.227 138.1C221.16 138.433 221.01 138.933 220.777 139.6C220.543 140.267 220.393 140.7 220.327 140.9L219.727 142.3L219.227 143.6C219.26 144.8 219.46 146.317 219.827 148.15C220.227 149.983 220.66 151.683 221.127 153.25C221.46 154.35 222.06 156.183 222.927 158.75L224.377 163.15V163.25C224.377 163.817 224.327 164.3 224.227 164.7C224.127 165.233 223.777 165.5 223.177 165.5ZM216.277 141.8C216.743 141.333 217.31 140.683 217.977 139.85L218.727 135.55C218.76 135.383 218.777 135.15 218.777 134.85C218.777 133.883 218.593 132.767 218.227 131.5C218.027 130.9 217.76 130.4 217.427 130C217.127 129.567 216.81 129.333 216.477 129.3L216.377 134.3C216.277 136.533 216.227 138.267 216.227 139.5C216.227 140.667 216.243 141.433 216.277 141.8ZM241.93 165.6C241.597 165.6 241.297 165.483 241.03 165.25C240.797 165.017 240.68 164.733 240.68 164.4L240.78 159.55C240.88 157.383 240.93 155.767 240.93 154.7C240.93 153.733 240.78 152.3 240.48 150.4C240.147 148.533 239.98 147.083 239.98 146.05C239.98 144.783 239.797 143.333 239.43 141.7C239.063 140.067 238.597 138.5 238.03 137C237.497 135.567 237.047 134.033 236.68 132.4C236.313 130.733 236.13 129.283 236.13 128.05C236.13 127.817 236.263 127.617 236.53 127.45C236.797 127.283 237.08 127.2 237.38 127.2C237.747 127.2 238.097 127.583 238.43 128.35C238.83 129.217 239.213 130.433 239.58 132C239.947 133.567 240.163 134.5 240.23 134.8L240.88 138.25L241.38 140.45C241.48 139.917 241.563 139.217 241.63 138.35C241.83 135.583 242.08 133.283 242.38 131.45C242.613 130.183 242.88 129.217 243.18 128.55C243.513 127.817 243.913 127.45 244.38 127.45C245.28 127.45 245.73 127.617 245.73 127.95C245.73 129.85 245.33 132.65 244.53 136.35C243.73 140.05 243.33 142.867 243.33 144.8L243.23 145.6C243.163 146.1 243.147 146.4 243.18 146.5V147.3C243.18 148.733 243.23 150.933 243.33 153.9L243.43 160.55L243.53 161.7L243.63 162.9V164.15C243.63 164.55 243.463 164.883 243.13 165.15C242.797 165.45 242.397 165.6 241.93 165.6Z" fill="black"/>
</svg>
