<svg width="143" height="42" viewBox="0 0 143 42" fill="none" xmlns="http://www.w3.org/2000/svg">
  <g clip-path="url(#clip0_808_92)">
  <g filter="url(#filter0_d_808_92)">
  <path d="M78.8999 4.24987C78.7499 4.79987 78.3499 6.29987 77.9999 7.59987C77.3499 10.0499 77.0999 10.3499 76.2499 9.59987C75.9499 9.34987 74.6999 9.24987 73.4499 9.39987L71.0999 9.59987L69.0499 15.4499C67.8999 18.6999 67.0999 21.6999 67.2999 22.1499C67.5499 22.8999 67.2499 22.9999 65.0499 22.9999C63.3999 22.9999 62.3999 22.7499 62.1999 22.3499C62.0999 21.9999 62.8999 19.0499 63.9999 15.8499C65.0999 12.6499 65.9999 9.89987 65.9999 9.74987C65.9999 9.59987 65.2499 9.49987 64.2999 9.49987C62.8999 9.49987 62.3999 9.79987 61.5999 11.1999L60.5999 12.8999L61.8999 13.8499L63.2499 14.8499L61.7499 18.7999L60.2499 22.7499L57.8499 22.8999C56.5499 22.9999 55.4999 22.8499 55.4999 22.6499C55.4999 22.4499 55.9999 20.8499 56.5999 19.1499C57.1999 17.4499 57.5499 15.8499 57.2999 15.6499C56.6499 14.9999 55.0999 17.3499 54.2499 20.2499L53.4499 22.9999H51.2499C49.6999 22.9999 48.9999 22.7999 48.9999 22.3499C48.9999 21.9499 49.7999 19.3499 50.7999 16.5499C51.7499 13.6999 52.4499 11.2999 52.3499 11.1999C52.0999 10.9499 48.3499 19.8999 47.7999 21.9999C47.5999 22.6999 46.8999 24.6499 46.1999 26.3499C45.1999 28.7499 44.5499 29.5999 43.2499 30.1999C41.0999 31.2499 39.9499 31.1999 30.2999 29.9499C20.9999 28.7499 12.4999 28.8499 9.39995 30.1999C6.14995 31.5999 5.09995 34.6999 7.64995 35.0999C8.89995 35.2999 11.6499 34.7499 14.9999 33.6499C18.7999 32.3999 25.9499 32.3499 34.4999 33.4499L42.2499 34.4499L42.9999 33.3499C43.3999 32.7499 44.7999 31.2499 46.0999 30.0499C47.3999 28.8499 48.5999 27.3999 48.7999 26.7999L49.1499 25.7499L49.5499 26.8999C50.1499 28.4499 50.5999 28.2999 51.9999 25.9999C53.3999 23.7499 54.2499 23.3999 53.7999 25.2499C53.5999 25.9499 53.6999 26.4999 53.9499 26.4999C54.1999 26.4999 54.5499 25.9499 54.6999 25.2499C55.0499 23.7999 55.9999 24.0499 55.9999 25.5499C55.9999 26.7999 56.7499 26.7499 58.5999 25.4499L60.0999 24.3499L59.7499 25.4499C59.5499 26.1999 59.6499 26.4999 60.1999 26.4999C60.5999 26.4999 61.0999 26.0499 61.2499 25.4999C61.6499 24.1999 62.4999 24.1999 62.4999 25.4999C62.4999 26.1499 62.8499 26.4999 63.4999 26.4999C64.0499 26.4999 64.4999 26.2499 64.4999 25.9999C64.4999 25.6999 64.7999 25.4999 65.1499 25.4999C66.3499 25.4499 67.9999 23.0999 69.2999 19.4499C70.0999 17.2999 71.2499 15.1499 72.1499 14.2499C73.0499 13.3499 73.5499 13.0999 73.3499 13.5999C72.8999 14.8499 73.9499 15.2499 74.7499 14.1999C75.8499 12.6499 76.1499 14.3499 75.2499 17.2499C74.0999 21.1499 74.2499 22.6499 76.0499 23.9499C77.0499 24.6999 77.3999 25.2499 77.0499 25.4499C76.2499 25.9499 85.0499 27.1499 86.5999 26.7499C87.2999 26.5499 88.1499 25.9499 88.4499 25.3499L89.0499 24.2499L88.7999 25.3499C88.4999 26.8999 90.2499 26.8999 90.7499 25.3499L91.1499 24.2499L91.3499 25.3499C91.5999 26.5999 92.8999 26.8499 93.9499 25.8499C94.4999 25.3499 94.6499 25.3999 94.8499 25.8499C95.1999 26.8499 95.8999 26.5999 96.0999 25.3999C96.3499 23.7999 97.4999 23.6499 97.4999 25.1999C97.4999 25.9499 97.8499 26.6499 98.2999 26.8499C98.9499 27.0999 98.9499 27.1999 98.3999 27.5499C97.4499 28.1499 98.5999 28.0999 100.35 27.4499C101.65 26.9499 103.95 24.6999 104 23.8499C104 23.6499 103.4 23.4999 102.65 23.4999C98.7999 23.4499 97.2999 18.2999 100.1 14.7499C100.95 13.6499 100.95 13.4999 100.25 13.4999C99.6499 13.4999 99.4999 13.1999 99.6999 12.3499C99.8499 11.7499 99.8499 11.5499 99.6999 11.8499C99.5499 12.1999 98.5499 12.4999 97.4499 12.4999C95.9499 12.4999 95.4999 12.2999 95.4999 11.5999C95.4999 10.8999 95.3999 10.8499 94.9999 11.4999C94.1999 12.7499 94.3999 12.9999 96.4999 12.9999C97.6999 12.9999 98.6499 13.2499 98.7999 13.6499C98.8999 13.9999 98.4499 15.7999 97.7499 17.6499C97.0499 19.4999 96.4999 21.4499 96.4999 21.9999C96.4999 22.8499 96.1499 22.9999 94.5499 22.9999C93.4499 22.9999 92.4499 22.7999 92.2999 22.5499C92.1499 22.2999 92.5499 20.4499 93.1999 18.4499C94.9499 13.0499 94.1499 13.0499 92.0499 18.3999L90.2499 22.9999H82.8499C76.6499 22.9999 75.3999 22.8999 75.1499 22.2499C74.9999 21.7999 75.9499 17.7499 77.1999 13.1999C78.4999 8.69987 79.4999 4.59987 79.3999 4.09987C79.1999 3.34987 79.1499 3.39987 78.8999 4.24987Z" fill="#8539A7"/>
  <path d="M24.75 5.14985C24.45 5.49985 23.9 6.54985 23.55 7.49985C23.15 8.44985 22.15 9.99985 21.3 10.8999L19.75 12.5499L20.9 13.3999L22.05 14.2999L21 16.7499C19.2 20.9999 18.9 21.4499 17.25 22.2499C16.05 22.7999 13.85 22.9999 8.9 23.0499C2.90001 23.0999 2.40001 23.1499 3.80001 23.7499C4.65001 24.1499 5.65001 24.7999 6 25.2499C6.65 25.9999 6.55 26.2499 5.55001 27.0499C3.90001 28.3999 4.70001 28.2499 6.55 26.8999C8.55 25.3999 14.25 25.0999 20 26.1999C22.3 26.6499 24.3 26.8499 24.45 26.7499C24.55 26.5999 24.25 26.4999 23.75 26.4999C23.05 26.4999 23 26.3499 23.5 25.7499C23.85 25.2999 24.5 25.0999 24.95 25.1999C25.45 25.3499 26.3 24.7499 27.25 23.4999C28.9 21.3499 29.95 20.9999 30.35 22.4999C30.7 23.8499 31.5 23.7499 31.5 22.3499C31.5 21.6999 32.05 19.7499 32.75 17.9999C34.25 14.1499 34.25 14.2499 32.9 15.1999C32.3 15.6499 30.85 15.9999 29.65 15.9999C27.6 15.9999 27.55 15.9999 26.5 18.8499C25.95 20.3999 25.55 21.9499 25.7 22.3499C25.9 22.8499 25.35 22.9999 23.5 22.9999C22.15 22.9999 20.9 22.7999 20.75 22.4999C20.6 22.2499 21.05 20.3999 21.75 18.3999C22.45 16.4499 22.9 14.4999 22.75 14.0999C22.6 13.6999 23.15 12.6499 23.95 11.7499C24.85 10.6999 25.5 9.29985 25.7 7.74985C26.1 5.29985 25.65 4.14985 24.75 5.14985ZM20 24.1999C20 24.9499 19.1 25.7499 18.7 25.3499C18.35 24.9999 19.05 23.4999 19.55 23.4999C19.8 23.4999 20 23.7999 20 24.1999Z" fill="#8539A7"/>
  <path d="M87.85 4.84999C87.7 5.04999 86.9 7.84999 86 11C85.1 14.15 84.25 17.05 84.15 17.35C84 17.7 84.25 18 84.65 18C85.05 18 85.5 17.4 85.65 16.6C85.75 15.85 86.45 12.9 87.2 10.05C88.4 5.54999 88.65 3.49999 87.85 4.84999Z" fill="#8539A7"/>
  <path d="M126.25 7C126.1 7.25 126.3 7.5 126.7 7.5C127.15 7.5 127.5 7.25 127.5 7C127.5 6.7 127.3 6.5 127.05 6.5C126.75 6.5 126.4 6.7 126.25 7Z" fill="#8539A7"/>
  <path d="M58.1 9.95L57.05 13H58.3C59.3 13 59.5 12.75 59.5 11.55C59.5 10.5 59.75 10 60.45 9.9C61.35 9.75 61.35 9.7 60.25 8.3L59.15 6.9L58.1 9.95Z" fill="#8539A7"/>
  <path d="M112.8 9.74989C112.3 11.3999 111.9 12.8499 111.9 12.9999C111.8 13.6999 106.9 27.2499 106.25 28.5499C104.75 31.3499 102.65 31.5499 89.15 29.9499C74.1 28.1999 67 29.6499 67 34.4499C67 35.8999 67.9 35.7999 75 33.6499C78.6 32.5499 85.65 32.5999 94.7 33.7499C101.3 34.5999 101.65 34.5999 102.1 33.7499C102.4 33.2999 103.05 32.4999 103.6 32.0499C104.1 31.5999 105.35 30.4499 106.4 29.4999C107.4 28.4999 108.6 27.7999 109.05 27.8999C109.5 27.9999 110.4 27.1999 111.25 25.9999C112.85 23.6999 113.2 23.4999 112.9 25.2499C112.55 26.8999 113.15 26.8499 114.05 25.0999L114.7 23.7499L114.9 25.3499C115.05 27.0499 116.3 27.6499 116.8 26.2999C117.2 25.2999 118.9 24.9499 118.8 25.8999C118.7 27.0499 119.9 27.1999 120.25 26.0499C120.65 24.6999 121.5 24.6999 121.5 25.9999C121.5 26.6499 121.85 26.9999 122.5 26.9999C123.05 26.9999 123.5 26.6999 123.5 26.3499C123.5 26.0499 124.05 25.4999 124.7 25.1999C125.7 24.7499 125.85 24.7499 125.6 25.5999C125.5 26.0999 125.65 26.4999 125.95 26.4999C126.25 26.4999 126.5 26.0499 126.5 25.5499C126.5 24.0499 127.35 23.8499 127.7 25.2499C127.9 26.0499 128.35 26.4999 129.05 26.4999C129.6 26.4999 129.95 26.2999 129.75 26.0499C129.25 25.1999 130.35 24.9999 131 25.7499C132 26.9499 134.75 26.6999 135.85 25.3499C136.35 24.6999 137.2 23.9999 137.75 23.7499C138.5 23.3999 137.85 23.2499 135.25 23.1499C130.35 22.9499 128.5 22.5999 128.5 21.7499C128.5 20.6999 129.45 20.2999 131.6 20.4499C133.85 20.5499 133.95 20.2499 132.25 18.8999C131.55 18.3499 131 17.4999 131 16.9499C131 16.4499 130.7 15.9999 130.3 15.9999C129.55 15.9999 127.75 20.5499 127.9 22.0999C127.95 22.8499 127.5 22.9999 125.7 22.9999C124.2 22.9999 123.4 22.7499 123.2 22.2499C123.05 21.8499 123.5 19.7499 124.2 17.5999C125 15.2999 125.4 13.2999 125.2 12.7499C124.95 12.1999 125.05 11.9499 125.3 12.1499C125.6 12.2999 126.05 11.7999 126.35 10.9499L126.9 9.49989H124.7C123.3 9.49989 122.5 9.29989 122.5 8.84989C122.5 8.54989 121.8 9.2499 121 10.4999L119.5 12.7499L121.35 13.2999C124.15 14.0999 124.3 14.7499 122.6 18.9999L121.1 22.7499L118.8 22.8999C117.55 22.9999 116.5 22.9499 116.5 22.8499C116.5 22.7499 116.95 21.3499 117.5 19.7499C118.7 16.1999 118.75 15.9999 117.6 15.9999C116.95 15.9999 116.4 16.9499 115.5 19.4999L114.3 22.9999H112.15C110.6 22.9999 110 22.7999 110 22.2999C110 21.8999 110.95 18.7999 112.15 15.3999C113.65 11.1999 114.25 8.84989 114 7.99989C113.7 6.89989 113.55 7.14989 112.8 9.74989Z" fill="#8539A7"/>
  <path d="M12.8501 8.15C12.5501 8.9 13.6001 10.5 14.4001 10.5C14.6501 10.5 15.1501 9.8 15.4501 9C15.9501 7.55 15.9001 7.5 14.5501 7.5C13.7501 7.5 13.0001 7.8 12.8501 8.15Z" fill="#8539A7"/>
  <path d="M39.1 9.1498C38.8 9.4998 38.7 10.2998 38.85 10.9498C39.15 12.0498 39.05 12.0498 38 11.4998C37 10.9498 36.75 10.9998 36.15 11.7998C35.2 13.0998 35.35 13.4998 36.7 13.4998C37.4 13.4998 38.05 13.6998 38.2 13.8998C38.35 14.1498 37.9 15.6498 37.25 17.2998C36.6 18.8998 36 20.7998 35.9 21.4998C35.8 22.5498 35.4 22.7998 33.75 23.0498C32.1 23.2498 31.9 23.3998 32.75 23.7498C33.3 23.9498 34.45 24.7998 35.3 25.5998L36.85 27.0498L37.15 25.5498C37.35 24.6998 37.7 23.9998 38 23.9998C38.65 23.9998 38.65 24.7998 38 26.0498C37.55 26.8998 37.65 26.9998 38.9 26.9998C40.5 26.9998 41.5 26.2998 42.7 24.4498C43.5 23.1498 43.5 23.1498 42.3 23.3498C39.4 23.9498 37.15 20.6498 38.05 17.1998C38.35 16.0998 39 14.7998 39.45 14.2498C40 13.6498 40.4 12.2498 40.45 10.8498C40.6 8.49979 40.1 7.89979 39.1 9.1498Z" fill="#8539A7"/>
  <path d="M119.3 9.29985C118.9 10.2999 119.1 10.5499 119.85 10.0999C120.2 9.89985 120.3 9.44985 120.05 9.04985C119.75 8.54985 119.55 8.59985 119.3 9.29985Z" fill="#8539A7"/>
  <path d="M33.5 10.1C33.5 10.45 33.75 11.1 34 11.5C34.4 12.15 34.5 12.1 34.5 11.35C34.5 10.9 34.5 10.35 34.55 10.15C34.55 9.94996 34.35 9.69996 34.05 9.59996C33.75 9.49996 33.5 9.69996 33.5 10.1Z" fill="#8539A7"/>
  <path d="M131.75 10.0999C131.6 10.4499 131.2 11.6999 130.8 12.7999L130.1 14.8999L132.05 14.0499C133.1 13.5999 133.65 13.1999 133.25 13.0999C132.15 12.8499 132.35 12.1999 133.85 10.7499L135.25 9.4999H133.6C132.7 9.4999 131.85 9.7999 131.75 10.0999Z" fill="#8539A7"/>
  <path d="M118.3 12.2999C118.1 12.7499 118.1 13.2499 118.25 13.3999C118.35 13.5499 118.6 13.2499 118.8 12.7999C119 12.3499 119 11.8499 118.85 11.6999C118.75 11.5499 118.5 11.8499 118.3 12.2999Z" fill="#8539A7"/>
  <path d="M9.90012 16.4C9.65012 17.25 10.5501 18.5 11.4001 18.5C11.8001 18.5 13.0001 16.4 13.0001 15.75C13.0001 15.6 12.3501 15.5 11.5501 15.5C10.6001 15.5 10.0501 15.8 9.90012 16.4Z" fill="#8539A7"/>
  <path d="M136.55 16.1999C136.65 16.2999 137.45 16.7499 138.3 17.1499C139.8 17.9499 139.9 17.8999 140.15 16.9999C140.35 16.0999 140.15 15.9999 138.35 15.9999C137.25 15.9999 136.45 16.0999 136.55 16.1999Z" fill="#8539A7"/>
  <path d="M42.5499 17.6C42.1999 18.6 42.2999 18.75 43.3999 18.9C44.5999 19.1 45.4999 18.35 45.4999 17.1C45.4999 16 42.9999 16.4 42.5499 17.6Z" fill="#8539A7"/>
  <path d="M103.3 17.6C102.85 19.35 102.9 19.5 103.95 19.5C104.85 19.5 106.5 17.8 106.5 16.9C106.5 16.65 105.85 16.5 105.05 16.5C104 16.5 103.55 16.8 103.3 17.6Z" fill="#8539A7"/>
  <path d="M66.9001 26.8499C67.2501 26.9999 67.7001 26.9499 67.8501 26.7999C68.0501 26.6499 67.7501 26.4999 67.2001 26.5499C66.6501 26.5499 66.5001 26.6999 66.9001 26.8499Z" fill="#8539A7"/>
  <path d="M92.3001 28.2498C92.7501 29.2998 99.1001 30.1998 101.25 29.4998C102.2 29.1998 103.1 28.6998 103.25 28.4498C103.45 28.1998 103 28.1998 102.25 28.4998C100.35 29.1998 96.4501 29.0998 94.1001 28.2998C92.4001 27.6998 92.1001 27.6998 92.3001 28.2498Z" fill="#8539A7"/>
  <path d="M33 28.6998C33.7 29.3998 41.3 29.3998 42.05 28.6498C42.5 28.1998 42.15 28.1998 40.55 28.5998C39.15 28.9498 37.5 28.9498 35.45 28.6498C33.4 28.2998 32.65 28.3498 33 28.6998Z" fill="#8539A7"/>
  <path d="M65 33.2499C65 33.4999 65.25 34.0999 65.5 34.4999C65.75 34.8999 66 34.9999 66 34.7499C66 34.4499 65.75 33.8999 65.5 33.4999C65.25 33.0999 65 32.9499 65 33.2499Z" fill="#8539A7"/>
  </g>
  </g>
  <defs>
  <filter id="filter0_d_808_92" x="-0.85083" y="3.57251" width="145.063" height="39.8486" filterUnits="userSpaceOnUse" color-interpolation-filters="sRGB">
  <feFlood flood-opacity="0" result="BackgroundImageFix"/>
  <feColorMatrix in="SourceAlpha" type="matrix" values="0 0 0 0 0 0 0 0 0 0 0 0 0 0 0 0 0 0 127 0" result="hardAlpha"/>
  <feOffset dy="4"/>
  <feGaussianBlur stdDeviation="2"/>
  <feComposite in2="hardAlpha" operator="out"/>
  <feColorMatrix type="matrix" values="0 0 0 0 0 0 0 0 0 0 0 0 0 0 0 0 0 0 0.25 0"/>
  <feBlend mode="normal" in2="BackgroundImageFix" result="effect1_dropShadow_808_92"/>
  <feBlend mode="normal" in="SourceGraphic" in2="effect1_dropShadow_808_92" result="shape"/>
  </filter>
  <clipPath id="clip0_808_92">
  <rect width="143" height="42" fill="white"/>
  </clipPath>
  </defs>
  </svg>
  