<svg width="101" height="18" viewBox="0 0 101 18" fill="none" xmlns="http://www.w3.org/2000/svg">
<g clip-path="url(#clip0_808_27)">
<mask id="mask0_808_27" style="mask-type:luminance" maskUnits="userSpaceOnUse" x="0" y="0" width="101" height="18">
<path d="M101 0H0V18H101V0Z" fill="white"/>
</mask>
<g mask="url(#mask0_808_27)">
<path d="M1.26449 16.5385C0.36955 15.2762 -0.0747042 13.7627 1.01328e-05 12.2308V5.84615C-0.108365 4.29774 0.308071 2.75746 1.18546 1.46154C2.05478 0.461538 3.39829 0 5.37403 0C7.34978 0 8.61425 0.461538 9.40455 1.30769C10.2626 2.37941 10.6846 3.72136 10.59 5.07692V6.61539H6.71754V4.84615C6.74881 4.32289 6.66808 3.799 6.48045 3.30769C6.38016 3.10938 6.2212 2.9448 6.02403 2.83513C5.82686 2.72547 5.60049 2.67572 5.37403 2.69231C4.82082 2.69231 4.42568 2.84615 4.26762 3.23077C4.08883 3.77733 4.00862 4.34988 4.03053 4.92308V13.1538C3.98879 13.71 4.0978 14.267 4.34665 14.7692C4.5047 15.1538 4.89985 15.3077 5.45306 15.3077C6.00627 15.3077 6.32239 15.1538 6.48045 14.7692C6.66013 14.2494 6.74049 13.7019 6.71754 13.1538V11.3077H10.59V12.8462C10.6704 14.2238 10.2508 15.5852 9.40455 16.6923C8.61425 17.6154 7.27075 18.0769 5.37403 18.0769C3.47732 18 2.05478 17.5385 1.26449 16.5385Z" fill="#111111"/>
<path d="M15.2527 0.230957H19.7574L23.0767 17.7694H19.4413L18.8091 14.0771H16.2011L15.5689 17.7694H11.8545L15.2527 0.230957ZM18.493 11.7694L17.5446 4.92327L16.5963 11.7694H18.493Z" fill="#111111"/>
<path d="M25.8428 3.15404H23.1558V0.230957H32.5603V3.07711H29.8733V17.7694H25.8428V3.15404Z" fill="#111111"/>
<path d="M39.7519 0.230957H46.7066V2.07711H42.2019V7.84634H45.8372V9.61558H42.2019V16.0771H46.7066V17.8464H39.6729V0.230957H39.7519Z" fill="#4AA925"/>
<path d="M48.7612 0.230957H50.4999L55.6368 11.8464V0.230957H57.6916V17.7694H56.111L50.895 5.76942V17.7694H48.7612V0.230957Z" fill="#4AA925"/>
<path d="M60.0625 0.230957H67.0171V2.07711H62.5124V7.84634H66.1478V9.61558H62.5124V16.0771H67.0171V17.8464H60.0625V0.230957Z" fill="#4AA925"/>
<path d="M69.0719 0.230944H72.7073C74.1374 0.134792 75.5586 0.514527 76.7378 1.30786C77.6071 2.00017 78.0023 3.23094 78.0023 4.84633C78.0023 7.07709 77.291 8.46171 75.7894 8.92325L78.3184 17.6925H75.8685L73.4976 9.46171H71.5218V17.6925H68.9929V0.230944H69.0719ZM72.5492 7.7694C73.3639 7.83475 74.176 7.61669 74.8411 7.15402C75.3153 6.7694 75.5523 6.00017 75.5523 4.84633C75.5742 4.27313 75.494 3.70057 75.3153 3.15402C75.1374 2.76183 74.8319 2.43747 74.4459 2.23094C73.9016 1.98951 73.3041 1.88377 72.7073 1.92325H71.6009V7.69248H72.5492V7.7694Z" fill="#4AA925"/>
<path d="M81.1636 16.4614C80.3421 15.1165 79.9565 13.5616 80.0572 11.9999V6.15374C80.0377 5.03901 80.1706 3.9267 80.4523 2.84605C80.7168 2.03853 81.2438 1.33658 81.9539 0.846049C82.8363 0.337645 83.8543 0.0966267 84.878 0.153741C86.5376 0.153741 87.7231 0.538357 88.4344 1.38451C89.2525 2.50181 89.6439 3.86227 89.5408 5.23067V5.84605H87.1699V5.30759C87.1735 4.66336 87.1206 4.02 87.0118 3.38451C86.9452 2.98293 86.7179 2.62338 86.3796 2.38451C85.9354 2.10072 85.4082 1.96569 84.878 1.9999C84.3114 1.96456 83.7505 2.12833 83.2974 2.46144C83.1115 2.61391 82.9596 2.80171 82.8509 3.01334C82.7421 3.22497 82.679 3.45598 82.6652 3.69221C82.561 4.37989 82.5082 5.07401 82.5071 5.76913V12.3076C82.4489 13.3037 82.6106 14.3005 82.9813 15.2307C83.2974 15.8461 83.9297 16.0768 84.878 16.0768C85.2525 16.1222 85.6323 16.0588 85.9698 15.8946C86.3073 15.7303 86.5874 15.4726 86.7747 15.1537C87.1923 14.181 87.3813 13.1298 87.3279 12.0768V10.8461H85.0361V9.07682H89.6198V17.7691H88.0392L87.8021 15.7691C87.5949 16.4394 87.1635 17.023 86.5764 17.4272C85.9893 17.8314 85.2802 18.033 84.5619 17.9999C83.9089 18.0373 83.2566 17.9163 82.6634 17.6478C82.0703 17.3793 81.555 16.9716 81.1636 16.4614Z" fill="#4AA925"/>
<path d="M94.6776 11.6153L90.8052 0.307617H93.1761L95.9421 8.76916L98.6291 0.307617H101L97.1275 11.6153V17.7691H94.7566V11.6153H94.6776Z" fill="#4AA925"/>
</g>
</g>
<defs>
<clipPath id="clip0_808_27">
<rect width="101" height="18" fill="white"/>
</clipPath>
</defs>
</svg>
