<svg width="140" height="35" viewBox="0 0 140 35" fill="none" xmlns="http://www.w3.org/2000/svg">
<path d="M26.2802 0V34.0828H18.9372V31.7655C17.2947 33.6 14.9758 34.7586 11.6908 34.7586C5.31401 34.7586 0 29.1586 0 21.9172C0 14.6759 5.31401 9.07586 11.6908 9.07586C14.9758 9.07586 17.3913 10.2345 18.9372 12.069V0H26.2802ZM18.9372 21.9172C18.9372 18.2483 16.5217 15.931 13.1401 15.931C9.75845 15.931 7.343 18.2483 7.343 21.9172C7.343 25.5862 9.75845 27.9034 13.1401 27.9034C16.5217 27.8069 18.9372 25.5862 18.9372 21.9172Z" fill="black"/>
<path d="M42.2218 28.1929C44.2508 28.1929 45.8933 27.4205 46.8595 26.3584L52.7532 29.7378C50.3378 33.0205 46.7629 34.7584 42.1252 34.7584C33.816 34.7584 28.5986 29.1584 28.5986 21.9171C28.5986 14.6757 33.816 9.07568 41.5455 9.07568C48.6953 9.07568 53.9126 14.5791 53.9126 21.9171C53.9126 22.9791 53.816 23.9446 53.6228 24.8136H36.3281C37.2943 27.324 39.5165 28.1929 42.2218 28.1929ZM46.6663 19.4067C45.8933 16.6067 43.6711 15.5446 41.4489 15.5446C38.6469 15.5446 36.8112 16.8964 36.1349 19.4067H46.6663Z" fill="#FFC917"/>
<path d="M79.3234 9.75195L70.3379 34.083H62.0287L53.0432 9.75195H61.1592L66.2799 25.2002L71.4007 9.75195C71.4007 9.75195 79.3234 9.75195 79.3234 9.75195Z" fill="black"/>
<path d="M80.5801 9.75195H87.9231V34.083H80.5801V9.75195Z" fill="black"/>
<path d="M90.4353 21.9171C90.4353 14.6757 95.9425 9.07568 103.382 9.07568C108.116 9.07568 112.271 11.586 114.397 15.3515L108.02 19.0205C107.15 17.2826 105.411 16.3171 103.286 16.3171C100.097 16.3171 97.7783 18.6343 97.7783 21.9171C97.7783 25.2964 100.097 27.5171 103.286 27.5171C105.411 27.5171 107.247 26.455 108.02 24.8136L114.397 28.4826C112.368 32.2481 108.213 34.7584 103.382 34.7584C95.9425 34.7584 90.4353 29.1584 90.4353 21.9171Z" fill="black"/>
<path d="M128.309 28.1929C130.338 28.1929 131.981 27.4205 132.947 26.3584L138.841 29.7378C136.425 33.0205 132.851 34.7584 128.213 34.7584C119.904 34.7584 114.686 29.1584 114.686 21.9171C114.686 14.6757 120 9.07568 127.633 9.07568C134.783 9.07568 140 14.5791 140 21.9171C140 22.9791 139.904 23.9446 139.71 24.8136H122.416C123.382 27.324 125.604 28.1929 128.309 28.1929ZM132.851 19.4067C132.078 16.6067 129.855 15.5446 127.633 15.5446C124.831 15.5446 122.995 16.8964 122.319 19.4067H132.851Z" fill="black"/>
<path d="M80.5801 0V9.75172L87.9231 0H80.5801Z" fill="#510094"/>
</svg>
