<svg width="137" height="56" viewBox="0 0 137 56" fill="none" xmlns="http://www.w3.org/2000/svg">
<g clip-path="url(#clip0_808_48)">
<mask id="mask0_808_48" style="mask-type:luminance" maskUnits="userSpaceOnUse" x="0" y="0" width="137" height="56">
<path d="M137 0H0V56H137V0Z" fill="white"/>
</mask>
<g mask="url(#mask0_808_48)">
<mask id="mask1_808_48" style="mask-type:luminance" maskUnits="userSpaceOnUse" x="0" y="0" width="137" height="56">
<path d="M137 0H0V56H137V0Z" fill="white"/>
</mask>
<g mask="url(#mask1_808_48)">
<path d="M52.7904 37.7569C52.1339 37.6811 51.4697 37.7965 50.8761 38.0894C50.8761 38.0894 48.2048 40.3456 34.9912 37.7479C25.2769 35.8332 20.2283 36.031 20.2283 36.031C20.2283 36.031 21.8577 24.7949 21.4125 21.6488C21.3921 21.4168 21.2832 21.2017 21.1088 21.0492C20.9343 20.8966 20.7081 20.8183 20.4776 20.8309C19.507 20.8309 18.9194 21.2084 18.9194 21.7297C19.0026 23.8537 18.9282 25.9811 18.6968 28.0938C18.2934 29.2101 17.5362 30.1606 16.5428 30.7978C15.5493 31.4349 14.3753 31.7231 13.203 31.6175C8.97354 31.3208 8.08313 28.2467 7.70916 26.1523C7.33519 24.0578 7.1215 18.2061 8.2345 15.8151C8.2345 15.8151 14.6098 16.0398 18.6166 12.5881C22.6235 9.13636 22.3742 6.15207 20.4776 4.87565C18.581 3.59924 14.1379 3.82396 10.7276 6.97005C8.76961 8.69668 7.22335 10.8476 6.20438 13.2622C6.20438 13.2622 1.19139 12.1836 2.34002 6.89814C3.55987 1.37899 11.0304 2.02619 11.0304 2.02619C12.5886 2.33181 12.6598 2.47563 13.1763 1.95428C13.6927 1.43292 14.0667 0.0845968 11.618 0.00369719C9.16943 -0.0772024 1.82358 1.14528 0.416738 6.07117C-1.08805 11.3117 1.69002 15.06 5.42082 15.6443C5.42082 15.6443 3.38179 24.723 5.90164 29.2174C6.60015 30.6377 7.70101 31.8164 9.06442 32.6039C10.4278 33.3913 11.9923 33.7519 13.5591 33.64C15.0283 33.64 17.6283 32.813 18.3673 31.6175C18.3673 31.6175 18.0201 34.8355 17.7262 36.004C17.7262 36.004 11.5468 35.9231 9.61463 36.9029C6.32903 38.6557 7.01465 42.7636 8.27902 44.2198C9.34751 45.4603 12.5619 46.1345 14.8858 45.0288C16.2159 44.3827 17.3648 43.4109 18.2279 42.2021C19.091 40.9932 19.6409 39.5856 19.8276 38.1074C23.5873 37.9121 27.3537 38.3248 30.9844 39.3299C36.4782 40.9838 44.1268 42.5299 46.424 42.5299C48.7213 42.5299 53.5473 41.8647 53.8411 39.9321C54.0014 38.6557 53.5295 37.9906 52.7904 37.7569ZM14.1201 7.71613C14.1201 7.71613 17.0406 5.46892 18.4386 6.87118C18.7524 7.21293 18.9334 7.65767 18.9481 8.12348C18.9628 8.58928 18.8103 9.04477 18.5187 9.40603C17.931 10.1791 16.3817 12.624 9.02697 13.8375C9.02697 13.8375 11.342 9.73862 14.1201 7.71613ZM14.3605 42.6917C14.3605 42.6917 10.327 44.912 9.90847 41.9007C9.74677 41.2728 9.80359 40.6079 10.0694 40.0172C10.3352 39.4265 10.7939 38.9459 11.3687 38.6557C12.0722 38.3052 13.0338 37.8647 17.2276 38.0175C17.1806 38.9779 16.8929 39.9106 16.3915 40.7281C15.89 41.5456 15.1912 42.2212 14.3605 42.6917Z" fill="#FF6991"/>
<path d="M65.5143 21.3344C65.5143 23.3659 65.5143 25.3884 65.5143 27.4199C65.5143 27.4199 65.5143 27.4918 65.5143 27.5277C65.4439 28.3369 65.1812 29.117 64.7486 29.8019C64.4751 30.2993 64.1198 30.7462 63.6979 31.1233C63.226 31.5368 62.9143 30.6109 62.7363 30.2244C61.4986 27.6086 62.0952 24.103 62.576 21.3614C62.7986 20.049 60.163 20.3906 59.9582 21.5591C59.4779 23.896 59.3132 26.2878 59.4685 28.6693C59.2351 28.6879 59.0082 28.7559 58.8026 28.869C58.597 28.982 58.4173 29.1376 58.2753 29.3255C57.8212 30.3053 56.4945 33.5593 54.8651 32.2559C53.6897 31.357 53.5651 28.894 53.4404 27.5188C53.2986 25.6124 53.5471 23.6969 54.1706 21.8917C54.1171 22.0445 55.1856 19.3479 55.6575 20.3546C55.7851 20.8344 55.8025 21.3373 55.7084 21.8248C55.6143 22.3124 55.4111 22.7719 55.1144 23.1682C53.7165 24.2288 55.889 24.6693 56.7349 24.0221C58.3377 22.8086 59.4062 18.8895 56.6726 18.422C53.5829 17.9007 51.8288 21.0468 51.1788 23.5457C50.8342 24.9808 50.6845 26.4564 50.7336 27.9322C50.3062 28.6873 48.8637 31.1143 48.0179 31.5278C47.0206 32.0491 47.0384 31.321 47.074 30.8536C47.1096 30.3862 47.5548 26.2244 47.7953 23.4198C48.006 22.3065 47.8496 21.1541 47.35 20.1389C46.9672 19.3569 43.7884 17.6041 40.9925 20.894C39.4175 22.6296 38.4536 24.8413 38.2501 27.1862C38.0631 27.5637 37.8583 27.9682 37.6179 28.4086C36.2823 30.8806 34.5994 31.9233 34.0029 30.2064C33.4028 28.418 33.1754 26.5237 33.3351 24.6423C35.4098 21.4 36.9327 17.8301 37.8405 14.0804C39.1761 8.09386 38.9268 5.11855 38.2056 4.61518C37.4843 4.1118 34.4214 2.87134 32.5782 10.2332C31.2108 15.4714 30.7321 20.9056 31.1625 26.3053C30.8775 26.9165 30.5214 27.6536 30.0673 28.4895C28.7317 30.9615 27.0577 32.0042 26.4522 30.2873C25.8642 28.4964 25.6489 26.6021 25.82 24.7232C27.8948 21.4809 29.4177 17.911 30.3255 14.1613C31.7056 8.09386 31.4296 5.11855 30.7084 4.61518C29.9871 4.1118 26.9241 2.87134 25.0899 10.2332C23.2557 17.5951 22.8906 25.6221 24.6447 31.0154C24.6447 31.0154 25.6063 34.0536 27.405 33.8289C28.8919 33.6402 30.6638 32.166 31.7056 29.4154C31.8234 29.956 31.969 30.4901 32.1419 31.0154C32.1419 31.0154 33.1035 34.0536 34.9022 33.8289C36.122 33.6761 37.5734 32.6424 38.5885 30.7547C39.2206 32.3997 40.583 33.757 42.3371 33.4514C44.7144 33.0199 45.2042 31.7165 45.2042 31.7165C45.2042 31.7165 45.1596 33.8559 46.6822 33.8559C48.0357 33.8559 49.1131 33.0559 50.1815 31.0154C50.5466 30.3233 50.7603 29.9188 50.8761 29.6851C51.1877 31.6177 51.9802 33.3345 53.5473 34.0267C56.2185 35.1952 58.5514 32.975 59.9226 30.7817C60.0983 31.3103 60.385 31.7943 60.763 32.2007C61.1411 32.6072 61.6015 32.9265 62.113 33.1368C62.6961 33.3218 63.3182 33.3416 63.9117 33.1942C64.5052 33.0468 65.0472 32.7378 65.4787 32.3008V35.4649C64.9905 35.4387 64.5069 35.571 64.0986 35.8424C62.7354 36.9716 61.6781 38.4313 61.0257 40.085C60.3732 41.7388 60.1469 43.5326 60.3678 45.2987C60.4054 45.7765 60.5596 46.2375 60.8166 46.6405C61.0736 47.0435 61.4255 47.3761 61.8408 47.6084C62.2561 47.8407 62.7219 47.9656 63.1967 47.972C63.6714 47.9783 64.1404 47.8659 64.5616 47.6448C67.3219 46.4313 67.7403 42.2515 67.9719 39.6986C68.5328 33.5593 68.0965 27.1682 68.0965 21.0108C68.0965 19.8782 65.5143 20.4086 65.5143 21.3344ZM26.933 11.2669C27.5474 8.88488 28.1173 7.93206 28.7138 7.93206C29.3104 7.93206 29.5419 8.57027 29.1234 10.6287C28.347 14.5768 27.1251 18.4221 25.4817 22.0895C25.4817 22.0895 26.3187 13.658 26.933 11.2669ZM34.4303 11.2669C35.0446 8.88488 35.6145 7.93206 36.1665 7.93206C36.7186 7.93206 37.0035 8.57027 36.585 10.6287C36.1665 12.6872 34.8042 18.3771 32.9433 22.0895C32.9433 22.0895 33.8337 13.658 34.4303 11.2669ZM45.8809 22.476C45.8096 22.9974 45.4713 26.3322 44.9905 28.13C44.5097 29.9278 44.1802 30.566 42.7377 31.1862C41.2953 31.8064 40.5652 29.9098 40.5652 29.9098C39.5412 27.0334 40.9124 24.5165 42.0521 22.7906C43.1919 21.0648 44.3405 20.912 44.9994 20.9929C45.1538 21.0317 45.299 21.101 45.4269 21.1966C45.5548 21.2922 45.6627 21.4123 45.7446 21.55C45.8265 21.6878 45.8806 21.8404 45.904 21.9993C45.9274 22.1582 45.9195 22.3202 45.8809 22.476ZM65.4431 38.6559C65.4968 41.0725 65.0162 43.4708 64.0363 45.6762C63.413 45.8021 63.1459 45.5684 62.9322 44.5616C62.7852 43.5935 62.7852 42.6084 62.9322 41.6402C63.2234 39.8618 64.0946 38.2326 65.4075 37.011C65.452 37.5773 65.452 38.1256 65.4431 38.6559Z" fill="#2D3440"/>
<path d="M82.1827 18.7904C81.0246 18.2746 79.9791 17.5325 79.1065 16.6069C78.2339 15.6812 77.5515 14.5903 77.0985 13.3971C75.9588 9.96337 79.6985 7.42851 82.6814 7.58132C85.6642 7.73414 87.2581 10.8353 87.1334 13.6128C87.08 14.5926 86.4656 16.8039 85.2635 15.6533C84.4686 14.7424 83.982 13.5994 83.8745 12.3903C83.6964 11.3027 81.1143 11.9499 81.2923 13.0915C81.8088 16.3814 85.317 20.0039 88.3265 16.5612C88.9423 15.7817 89.3753 14.8717 89.5932 13.8992C89.8111 12.9268 89.8081 11.9172 89.5845 10.9461C89.361 9.97506 88.9226 9.06763 88.3023 8.29187C87.6819 7.51611 86.8957 6.89214 86.0026 6.46671C83.9878 5.67466 81.7597 5.63123 79.7161 6.34417C77.6725 7.0571 75.9463 8.48 74.8458 10.3588C72.415 14.7184 77.2944 18.9792 80.7492 20.5342C86.2964 23.5275 86.5012 33.1635 79.1286 33.2265C77.6141 33.1914 76.1463 32.6895 74.9224 31.7881C73.6985 30.8867 72.7769 29.629 72.2814 28.1837C71.7739 26.6736 72.0321 21.3972 74.0622 20.9927C75.6739 20.678 75.2376 19.1949 73.6616 19.4735C70.3581 20.1207 69.1383 24.4264 69.4588 27.4377C69.9753 32.2377 74.4273 34.9254 78.9239 34.8894C80.9132 34.9471 82.8598 34.3 84.426 33.0604C85.9922 31.8208 87.0792 30.0669 87.4985 28.1028C87.8293 26.1682 87.4788 24.1777 86.5079 22.4767C85.5369 20.7757 84.0067 19.4715 82.1827 18.7904Z" fill="#FF6991"/>
<path d="M98.7265 33.0737C96.1888 31.6714 97.6402 26.2691 98.0231 24.1927C98.2724 22.8533 99.4032 20.7859 97.5868 20.3275C95.4587 19.8061 92.9299 21.8466 91.1046 23.7972C91.1031 21.5468 91.2668 19.2994 91.5943 17.0735C94.41 15.6553 96.6644 13.313 97.9874 10.4309C99.145 8.09371 99.7148 3.23973 95.797 4.65997C92.2354 5.91841 91.0156 10.0532 89.9026 13.3701C89.482 14.6531 89.1576 15.9663 88.932 17.2983C88.5769 17.4489 88.2143 17.5809 87.8457 17.6938C86.3677 18.1613 86.5635 18.9612 88.0594 18.4938L88.7806 18.26C88.0683 23.3028 88.5491 28.5882 89.0033 33.5411C89.0033 34.0265 91.6745 33.5411 91.5765 32.84C91.3806 30.6287 91.2115 28.4174 91.1402 26.2242C91.3552 26.1607 91.5491 26.0395 91.7012 25.8736C92.5205 24.8353 93.4391 23.8808 94.4436 23.0241C94.7108 22.7814 94.9868 22.5567 95.2628 22.341L95.6724 22.0354C96.269 21.5589 96.3847 21.55 96.0107 22.0354C95.8712 22.8925 95.6869 23.7418 95.4587 24.5793C94.969 27.276 93.5621 32.5703 96.6518 34.2692C97.3196 34.6108 99.7237 33.604 98.7265 33.0737ZM92.9477 11.4016C93.2238 10.6015 93.5888 9.81058 93.9272 9.03754C94.3457 8.06674 95.4676 4.74986 96.2779 6.34088C96.9279 7.60831 95.9039 9.68473 95.4498 10.8983C94.7348 12.7955 93.4994 14.4479 91.8882 15.6623C92.148 14.22 92.5019 12.7967 92.9477 11.4016Z" fill="#2D3440"/>
<path d="M108.298 26.7726C108.298 23.8152 107.969 20.022 104.47 19.7073C100.632 19.3568 99.1272 23.4108 99.0737 26.44C99.0682 26.5472 99.095 26.6536 99.1507 26.7451C99.2063 26.8365 99.2882 26.9088 99.3854 26.9524C99.3854 29.7838 100.062 33.4783 103.401 33.4153C107.123 33.3614 108.298 30.0805 108.298 26.7726ZM103.846 31.6985C101.674 30.7996 101.87 27.0153 102.012 25.1905C102.025 25.0988 102.012 25.0052 101.974 24.9208C101.936 24.8364 101.875 24.7647 101.798 24.7141C102.066 22.9164 102.76 20.2197 104.345 21.559C105.609 22.6557 105.636 25.2894 105.698 26.8085C105.752 27.8692 105.618 32.3636 103.855 31.6985H103.846Z" fill="#2D3440"/>
<path d="M136.346 42.9972C135.349 40.4085 133.158 39.4017 130.745 39.2938C130.476 38.6367 130.139 38.01 129.739 37.4242C126.258 32.2196 117.995 32.9297 112.394 35.6264C112.394 34.8084 112.314 33.9904 112.278 33.1724C113.393 33.2633 114.511 33.0629 115.527 32.5906C116.542 32.1183 117.42 31.3899 118.075 30.4758C119.562 28.3275 119.348 24.5162 118.761 22.1072C118.209 19.842 116.018 20.2465 114.371 21.0015C113.765 21.2913 113.206 21.6733 112.715 22.1341C112.715 21.5319 112.813 20.9206 112.857 20.3364C112.955 18.9521 110.328 19.3026 110.239 20.5251C109.83 26.0892 109.972 31.6353 109.848 37.1905C108.268 38.501 107.013 40.166 106.182 42.0527C105.352 43.9394 104.97 45.9958 105.066 48.058C105.066 50.0984 106.785 51.6535 108.628 50.1973C111.201 48.2018 111.985 44.2377 112.341 41.2085C112.487 39.8565 112.534 38.4955 112.483 37.1365C114.491 35.8073 116.836 35.0918 119.237 35.0758C121.638 35.0599 123.993 35.7442 126.017 37.0466C126.887 37.6664 127.583 38.5024 128.039 39.4736C126.615 39.7307 125.232 40.1781 123.925 40.804C122.402 41.5411 120.141 43.2849 120.248 45.2355C120.23 45.8527 120.423 46.4572 120.794 46.948C121.166 47.4389 121.692 47.7862 122.287 47.9321C122.368 47.9737 122.455 48.001 122.545 48.013C128.012 48.9119 132.081 45.649 131.298 41.0557C133.969 42.5208 134.957 45.9186 134.013 48.84C131.885 55.4019 123.693 56.867 118.921 52.4805C118.404 52.0131 116.081 53.0018 116.49 53.3794C123.382 59.7345 140.549 53.8558 136.346 42.9972ZM109.687 41.4062C109.612 42.9934 109.269 44.5559 108.672 46.0265C108.45 46.5209 108.209 46.9973 107.951 47.4647C107.951 47.4647 107.72 47.5186 107.675 46.8175C107.671 44.2992 108.395 41.8344 109.759 39.7253C109.741 40.2826 109.723 40.8489 109.687 41.4062ZM112.474 25.3521C112.526 25.3079 112.571 25.2564 112.608 25.1993C113.086 24.3854 113.654 23.6286 114.3 22.9431C114.766 22.4083 115.309 21.9477 115.911 21.5768C116.196 21.7206 116.49 22.4757 116.597 23.4915C116.873 25.9903 116.989 32.5702 113.089 31.95C112.785 31.9363 112.481 31.9884 112.198 32.1028C112.189 29.8196 112.314 27.5904 112.474 25.3521ZM124.121 46.6917H124.067C122.572 46.3321 122.732 44.8939 122.928 43.9231C123.364 41.6489 126.106 40.4264 128.368 40.3276C129.517 43.5635 128.635 47.4377 124.121 46.6917Z" fill="#FF6991"/>
</g>
</g>
</g>
<defs>
<clipPath id="clip0_808_48">
<rect width="137" height="56" fill="white"/>
</clipPath>
</defs>
</svg>
