<svg width="48" height="20" viewBox="0 0 48 20" fill="none" xmlns="http://www.w3.org/2000/svg">
  <path d="M41.8922 15.3904C41.8922 17.2674 40.3363 18.8031 38.4345 18.8031H9.37225C7.47052 18.8031 5.91455 17.2674 5.91455 15.3904V4.52205C5.91455 2.64508 7.47052 1.10938 9.37225 1.10938H38.4345C40.3363 1.10938 41.8922 2.64508 41.8922 4.52205V15.3904Z" fill="url(#paint0_linear_817_33)"/>
  <path d="M35.8125 9.72414C37.3315 10.2486 38.0906 11.1473 38.0906 12.4188C38.0906 13.2557 37.7758 13.9199 37.1475 14.4113C36.5199 14.9029 35.6245 15.208 34.459 15.208C33.2936 15.208 32.2156 14.8747 31.2227 14.3276C31.2334 14.0374 31.3111 13.7191 31.4537 13.3735C31.5964 13.028 31.7652 12.7534 31.9586 12.5529C32.8712 13.021 33.6653 13.2554 34.3393 13.2554C34.6579 13.2554 34.9044 13.2026 35.0759 13.0964C35.2478 12.9905 35.3333 12.8484 35.3333 12.6698C35.3333 12.3342 35.0699 12.0832 34.5449 11.9159L33.6017 11.5643C32.175 11.0511 31.4615 10.2149 31.4615 9.05327C31.4615 8.2051 31.7612 7.53285 32.3606 7.03553C32.96 6.53892 33.7679 6.11133 34.7837 6.11133C35.2862 6.11133 35.8395 6.18105 36.4449 6.32049C37.0497 6.46027 37.5465 6.80453 37.9346 6.9937C37.9575 7.3064 37.8939 7.64966 37.7463 8.02345C37.5976 8.39756 37.4154 8.66246 37.1977 8.81885C36.2381 8.3946 35.4396 8.18247 34.7999 8.18247C34.5708 8.18247 34.3983 8.23261 34.2772 8.33352C34.1574 8.43413 34.0986 8.56222 34.0986 8.71861C34.0986 8.98652 34.3152 9.19831 34.7494 9.35466L35.8125 9.72414Z" fill="#F6F6F6"/>
  <path d="M28.2256 9.72414C29.7445 10.2486 30.5033 11.1473 30.5033 12.4188C30.5033 13.2557 30.1885 13.9199 29.5612 14.4113C28.9329 14.9029 28.0372 15.208 26.8721 15.208C25.7077 15.208 24.6283 14.8747 23.6357 14.3276C23.6465 14.0374 23.7242 13.7191 23.8671 13.3735C24.0098 13.028 24.1779 12.7534 24.372 12.5529C25.2856 13.021 26.0793 13.2554 26.7531 13.2554C27.0719 13.2554 27.3184 13.2026 27.4893 13.0964C27.6606 12.9905 27.7466 12.8484 27.7466 12.6698C27.7466 12.3342 27.4833 12.0832 26.9582 11.9159L26.0158 11.5643C24.5886 11.0511 23.8749 10.2149 23.8749 9.05327C23.8749 8.2051 24.1746 7.53285 24.7746 7.03553C25.3737 6.53892 26.1812 6.11133 27.197 6.11133C27.6992 6.11133 28.2539 6.18105 28.8579 6.32049C29.4634 6.46027 29.9595 6.80453 30.348 6.9937C30.3709 7.3064 30.3073 7.64966 30.1596 8.02345C30.0113 8.39756 29.8287 8.66246 29.6114 8.81885C28.6514 8.3946 27.8529 8.18247 27.2129 8.18247C26.9842 8.18247 26.811 8.23261 26.6905 8.33352C26.5711 8.43413 26.5116 8.56222 26.5116 8.71861C26.5116 8.98652 26.7285 9.19831 27.1628 9.35466L28.2256 9.72414Z" fill="#F6F6F6"/>
  <path d="M22.6932 9.84252C22.6932 9.3293 22.6105 8.8549 22.445 8.41933C22.2798 7.9838 22.0427 7.61032 21.7346 7.29761C21.4261 6.98491 21.0525 6.73955 20.6132 6.56095C20.1732 6.38268 19.6794 6.11377 19.1315 6.11377C18.4807 6.11377 17.9126 6.4046 17.4276 6.628C16.9426 6.8511 16.543 7.15784 16.2291 7.54857C15.9146 7.93959 15.6806 8.39975 15.5265 8.92988C15.3724 9.46006 15.2954 10.0377 15.2954 10.6624C15.2954 11.3091 15.358 11.9073 15.4838 12.4541C15.6092 13.0001 15.8234 13.4742 16.1259 13.8766C16.4286 14.2783 16.8224 14.5907 17.3078 14.8134C17.7931 15.0365 18.3955 15.2078 19.1147 15.2078C20.4389 15.2078 21.5576 14.8294 22.4711 14.1936C22.3806 13.5469 22.1472 13.0327 21.7722 12.6533C21.3057 12.8262 20.8929 12.95 20.5351 13.0261C20.1769 13.1011 19.861 13.139 19.5883 13.139C19.0424 13.139 18.6495 13.0019 18.4111 12.725C18.1729 12.4491 18.0422 12.1228 18.0191 11.6272H22.4718C22.6189 11.1578 22.6932 10.5234 22.6932 9.84252ZM18.0021 9.95842C18.036 9.38875 18.1414 8.77925 18.3166 8.5283C18.4922 8.27701 18.7609 8.15151 19.1238 8.15151C19.4975 8.15151 19.778 8.28498 19.9647 8.55289C20.1518 8.82079 20.2452 9.36057 20.2452 9.77351L20.2455 9.95842H18.0021Z" fill="#F6F6F6"/>
  <path d="M42.7886 11.0721C42.3046 11.4894 42.0237 12.0899 42.0237 12.8751V15.7991C42.0237 16.7711 41.721 17.5104 41.0372 18.0186C40.354 18.5262 39.5576 18.7775 38.6484 18.8017L38.1096 18.7977V17.3407C38.5846 17.2039 38.7796 17.0449 38.9686 16.8643C39.3111 16.5589 39.5734 16.0619 39.5734 15.3718V13.0112C39.5862 12.2088 39.6487 11.58 39.9447 11.1259C40.2417 10.6717 40.8199 10.2747 41.6793 9.93177C40.7301 9.50288 40.0927 8.94282 39.7678 8.25199C39.5767 7.84168 39.573 7.28796 39.573 6.59146V4.42667C39.573 3.71159 39.3359 3.21068 39.0443 2.92482C38.8546 2.73825 38.6339 2.5892 38.1089 2.47669V1.10894C38.751 1.11558 39.0752 1.10831 39.4493 1.10894C40.0251 1.1043 40.5074 1.41504 40.9272 1.73868C41.3843 2.09355 41.7092 2.5733 41.8996 3.17712C42.0079 3.52601 42.0233 3.85934 42.0233 4.17668V6.68042C42.0233 7.56476 42.2881 8.2221 42.7405 8.65132C42.9954 8.90032 43.3553 9.12802 43.9732 9.33355V10.4646C43.4257 10.614 43.0819 10.8165 42.7886 11.0721Z" fill="#F6F6F6" stroke="#404040" stroke-miterlimit="10"/>
  <path d="M8.72846 1.1095V1.11146C8.54449 1.11046 8.37796 1.10979 8.2448 1.11013C7.66863 1.10516 7.18632 1.4159 6.76692 1.73987C6.30914 2.09474 5.91732 2.55787 5.79456 3.1783C5.7246 3.54215 5.7394 3.86015 5.7394 4.17786V6.68161C5.7394 7.56565 5.40608 8.22262 4.95402 8.65256C4.69937 8.90151 4.15581 9.12887 3.5376 9.33436V10.4654C4.08551 10.6144 4.61295 10.8163 4.90554 11.0726C5.38988 11.4902 5.73898 12.0911 5.73898 12.8761V15.8001C5.73898 16.7715 5.97379 17.5115 6.65689 18.019C7.34004 18.5263 8.13617 18.7786 9.04533 18.8031L9.65377 18.7991V17.3411C9.17916 17.204 8.91551 17.045 8.72545 16.865C8.38337 16.5592 8.18964 16.0626 8.18964 15.3728V13.0119C8.17653 12.2088 8.04535 11.5807 7.74904 11.1262C7.45273 10.6728 6.87453 10.2751 6.01414 9.93246C6.9637 9.50324 7.60074 8.94351 7.92564 8.25301C8.11705 7.84237 8.18968 7.28865 8.18968 6.59218V4.4274C8.18968 3.71232 8.35782 3.21141 8.64914 2.92526C8.80722 2.76991 9.08839 2.64208 9.47895 2.53854L10.0965 2.5428C10.0965 2.01817 10.0965 1.68977 10.0965 1.10938H8.72854V1.1095H8.72846Z" fill="#F6F6F6" stroke="#404040" stroke-miterlimit="10"/>
  <path d="M14.4218 12.9721H13.9594C13.4565 12.9721 13.2672 12.7112 13.2672 12.1871V2.55361C13.2672 1.97434 13.0977 1.56766 12.8807 1.33332C12.6637 1.09961 12.287 1.10195 11.7505 1.10195H10.7061L10.583 1.09961V1.10954L10.582 2.54334V12.6532C10.582 13.4572 10.765 14.0455 11.0906 14.4199C11.4165 14.7937 11.9671 14.9803 12.7434 14.9803C13.2802 14.9803 13.891 14.9245 14.5758 14.8126C14.6101 14.6997 14.6273 14.4581 14.6273 14.0873C14.6273 13.7155 14.5587 13.3446 14.4218 12.9721Z" fill="#F6F6F6"/>
  <defs>
  <linearGradient id="paint0_linear_817_33" x1="23.9034" y1="1.10937" x2="23.9034" y2="18.8031" gradientUnits="userSpaceOnUse">
  <stop offset="0.1497" stop-color="#2A4F84"/>
  <stop offset="0.3884" stop-color="#294E82"/>
  <stop offset="1" stop-color="#172E4E"/>
  </linearGradient>
  </defs>
</svg>  